<svg width="32" height="32" viewBox="0 0 32 32" fill="none" xmlns="http://www.w3.org/2000/svg">
<rect width="32" height="32" rx="5" fill="#171717"/>
<path d="M12.6193 12.0909V13.7955H6.45455V12.0909H12.6193ZM8.14489 23V10.8267C8.14489 10.1449 8.29403 9.57907 8.59233 9.12926C8.89063 8.67472 9.28598 8.33617 9.77841 8.11364C10.2708 7.88636 10.8059 7.77273 11.3835 7.77273C11.8097 7.77273 12.1742 7.80824 12.4773 7.87926C12.7803 7.94555 13.0052 8.0071 13.152 8.06392L12.6548 9.78267C12.5554 9.75426 12.4276 9.72112 12.2713 9.68324C12.1151 9.64062 11.9257 9.61932 11.7031 9.61932C11.187 9.61932 10.8177 9.74716 10.5952 10.0028C10.3774 10.2585 10.2685 10.6278 10.2685 11.1108V23H8.14489ZM16.4865 12.0909L18.8942 16.3381L21.3232 12.0909H23.6456L20.2436 17.5455L23.674 23H21.3516L18.8942 18.9233L16.4439 23H14.1143L17.5092 17.5455L14.157 12.0909H16.4865Z" fill="white"/>
</svg>
