<svg width="56" height="14" viewBox="0 0 56 14" fill="none" xmlns="http://www.w3.org/2000/svg">
<path d="M-0.000710189 13.8636V3.36364H1.45099V4.60156H1.57528C1.66146 4.44247 1.78575 4.25852 1.94815 4.04972C2.11056 3.84091 2.33594 3.65862 2.62429 3.50284C2.91264 3.34375 3.2938 3.2642 3.76776 3.2642C4.38423 3.2642 4.93442 3.41998 5.41832 3.73153C5.90223 4.04309 6.28172 4.49219 6.55682 5.07884C6.83523 5.66548 6.97443 6.37145 6.97443 7.19673C6.97443 8.02202 6.83688 8.72964 6.56179 9.3196C6.2867 9.90625 5.90885 10.3587 5.42827 10.6768C4.94768 10.9917 4.39915 11.1491 3.78267 11.1491C3.31866 11.1491 2.93916 11.0713 2.64418 10.9155C2.35251 10.7597 2.12382 10.5774 1.9581 10.3686C1.79238 10.1598 1.66477 9.9742 1.57528 9.81179H1.4858V13.8636H-0.000710189ZM1.45597 7.18182C1.45597 7.71875 1.53385 8.18939 1.68963 8.59375C1.84541 8.99811 2.07079 9.31463 2.36577 9.54332C2.66075 9.7687 3.02202 9.88139 3.44957 9.88139C3.8937 9.88139 4.26491 9.76373 4.56321 9.52841C4.86151 9.28977 5.08688 8.96662 5.23935 8.55895C5.39512 8.15128 5.47301 7.69223 5.47301 7.18182C5.47301 6.67803 5.39678 6.22562 5.24432 5.82457C5.09517 5.42353 4.86979 5.10701 4.56818 4.875C4.26989 4.64299 3.89702 4.52699 3.44957 4.52699C3.0187 4.52699 2.65412 4.63802 2.35582 4.86009C2.06084 5.08215 1.83712 5.39205 1.68466 5.78977C1.5322 6.1875 1.45597 6.65151 1.45597 7.18182ZM8.63991 11V3.36364H10.1264V11H8.63991ZM9.39062 2.18537C9.1321 2.18537 8.91004 2.09919 8.72443 1.92685C8.54214 1.75118 8.45099 1.54238 8.45099 1.30043C8.45099 1.05516 8.54214 0.846354 8.72443 0.674005C8.91004 0.498342 9.1321 0.410511 9.39062 0.410511C9.64915 0.410511 9.86956 0.498342 10.0518 0.674005C10.2375 0.846354 10.3303 1.05516 10.3303 1.30043C10.3303 1.54238 10.2375 1.75118 10.0518 1.92685C9.86956 2.09919 9.64915 2.18537 9.39062 2.18537ZM13.2995 3.36364L14.9849 6.33665L16.6852 3.36364H18.3109L15.9295 7.18182L18.3308 11H16.7051L14.9849 8.14631L13.2697 11H11.639L14.0154 7.18182L11.6689 3.36364H13.2995ZM22.0458 11.169C21.5619 11.169 21.1244 11.0795 20.7333 10.9006C20.3422 10.7183 20.0323 10.4548 19.8036 10.1101C19.5782 9.76539 19.4656 9.3428 19.4656 8.84233C19.4656 8.41146 19.5484 8.05682 19.7141 7.77841C19.8799 7.5 20.1036 7.27959 20.3853 7.11719C20.667 6.95478 20.9819 6.83215 21.3299 6.74929C21.6779 6.66643 22.0326 6.60346 22.3938 6.56037C22.8512 6.50734 23.2224 6.46425 23.5075 6.43111C23.7925 6.39465 23.9996 6.33665 24.1289 6.2571C24.2582 6.17756 24.3228 6.0483 24.3228 5.86932V5.83452C24.3228 5.40033 24.2002 5.06392 23.9549 4.82528C23.713 4.58665 23.3517 4.46733 22.8711 4.46733C22.3706 4.46733 21.9762 4.57836 21.6879 4.80043C21.4028 5.01918 21.2056 5.26278 21.0962 5.53125L19.6992 5.21307C19.8649 4.74905 20.1069 4.37453 20.4251 4.08949C20.7466 3.80114 21.1161 3.59233 21.5337 3.46307C21.9513 3.33049 22.3905 3.2642 22.8512 3.2642C23.1561 3.2642 23.4793 3.30066 23.8207 3.37358C24.1654 3.44318 24.4869 3.57244 24.7852 3.76136C25.0868 3.95028 25.3337 4.22041 25.5259 4.57173C25.7182 4.91974 25.8143 5.37216 25.8143 5.92898V11H24.3626V9.95597H24.3029C24.2068 10.1482 24.0626 10.3371 23.8704 10.5227C23.6781 10.7083 23.4312 10.8625 23.1296 10.9851C22.828 11.1077 22.4667 11.169 22.0458 11.169ZM22.369 9.97585C22.7799 9.97585 23.1313 9.89465 23.4229 9.73224C23.7179 9.56984 23.9416 9.35772 24.0941 9.09588C24.2499 8.83073 24.3278 8.54735 24.3278 8.24574V7.26136C24.2747 7.31439 24.172 7.36411 24.0195 7.41051C23.8704 7.4536 23.6997 7.49171 23.5075 7.52486C23.3152 7.55469 23.128 7.58286 22.9457 7.60938C22.7634 7.63258 22.6109 7.65246 22.4883 7.66903C22.1999 7.70549 21.9364 7.76681 21.6978 7.85298C21.4625 7.93916 21.2736 8.06345 21.131 8.22585C20.9918 8.38494 20.9222 8.59706 20.9222 8.86222C20.9222 9.23011 21.0581 9.50852 21.3299 9.69744C21.6017 9.88305 21.948 9.97585 22.369 9.97585ZM28.7736 11.0945C28.5018 11.0945 28.2682 10.9983 28.0726 10.8061C27.8771 10.6106 27.7793 10.3752 27.7793 10.1001C27.7793 9.82836 27.8771 9.59635 28.0726 9.40412C28.2682 9.20857 28.5018 9.1108 28.7736 9.1108C29.0454 9.1108 29.2791 9.20857 29.4746 9.40412C29.6702 9.59635 29.7679 9.82836 29.7679 10.1001C29.7679 10.2824 29.7215 10.4498 29.6287 10.6023C29.5392 10.7514 29.4199 10.8707 29.2708 10.9602C29.1216 11.0497 28.9559 11.0945 28.7736 11.0945ZM34.6177 11.1491C34.0012 11.1491 33.4511 10.9917 32.9672 10.6768C32.4866 10.3587 32.1087 9.90625 31.8336 9.3196C31.5618 8.72964 31.426 8.02202 31.426 7.19673C31.426 6.37145 31.5635 5.66548 31.8386 5.07884C32.117 4.49219 32.4982 4.04309 32.9821 3.73153C33.466 3.41998 34.0145 3.2642 34.6277 3.2642C35.1016 3.2642 35.4828 3.34375 35.7711 3.50284C36.0628 3.65862 36.2882 3.84091 36.4473 4.04972C36.6097 4.25852 36.7356 4.44247 36.8251 4.60156H36.9146V0.818182H38.4011V11H36.9494V9.81179H36.8251C36.7356 9.9742 36.6064 10.1598 36.4373 10.3686C36.2716 10.5774 36.0429 10.7597 35.7512 10.9155C35.4596 11.0713 35.0817 11.1491 34.6177 11.1491ZM34.9458 9.88139C35.3734 9.88139 35.7347 9.7687 36.0297 9.54332C36.3279 9.31463 36.5533 8.99811 36.7058 8.59375C36.8616 8.18939 36.9395 7.71875 36.9395 7.18182C36.9395 6.65151 36.8632 6.1875 36.7108 5.78977C36.5583 5.39205 36.3346 5.08215 36.0396 4.86009C35.7446 4.63802 35.38 4.52699 34.9458 4.52699C34.4984 4.52699 34.1255 4.64299 33.8272 4.875C33.5289 5.10701 33.3036 5.42353 33.1511 5.82457C33.002 6.22562 32.9274 6.67803 32.9274 7.18182C32.9274 7.69223 33.0036 8.15128 33.1561 8.55895C33.3085 8.96662 33.5339 9.28977 33.8322 9.52841C34.1338 9.76373 34.505 9.88139 34.9458 9.88139ZM43.8139 11.1541C43.0616 11.1541 42.4136 10.9934 41.87 10.6719C41.3298 10.3471 40.9122 9.89134 40.6172 9.30469C40.3255 8.71473 40.1797 8.02367 40.1797 7.23153C40.1797 6.44934 40.3255 5.75994 40.6172 5.16335C40.9122 4.56676 41.3232 4.10109 41.8501 3.76633C42.3804 3.43158 43.0002 3.2642 43.7095 3.2642C44.1404 3.2642 44.558 3.33546 44.9624 3.47798C45.3667 3.6205 45.7296 3.84422 46.0511 4.14915C46.3726 4.45407 46.6262 4.85014 46.8118 5.33736C46.9974 5.82126 47.0902 6.40956 47.0902 7.10227V7.62926H41.0199V6.51562H45.6335C45.6335 6.12453 45.554 5.77817 45.3949 5.47656C45.2358 5.17164 45.0121 4.93134 44.7237 4.75568C44.4387 4.58002 44.1039 4.49219 43.7195 4.49219C43.3018 4.49219 42.9373 4.59493 42.6257 4.80043C42.3175 5.0026 42.0788 5.26776 41.9098 5.59588C41.7441 5.92069 41.6612 6.27367 41.6612 6.65483V7.52486C41.6612 8.03527 41.7507 8.46946 41.9297 8.82741C42.112 9.18537 42.3655 9.45881 42.6903 9.64773C43.0152 9.83333 43.3946 9.92614 43.8288 9.92614C44.1106 9.92614 44.3674 9.88636 44.5994 9.80682C44.8314 9.72396 45.032 9.60133 45.201 9.43892C45.37 9.27652 45.4993 9.07599 45.5888 8.83736L46.9957 9.09091C46.883 9.50521 46.6809 9.86813 46.3892 10.1797C46.1009 10.4879 45.7379 10.7282 45.3004 10.9006C44.8662 11.0696 44.3707 11.1541 43.8139 11.1541ZM55.0534 3.36364L52.2843 11H50.6934L47.9192 3.36364H49.5151L51.449 9.24006H51.5286L53.4576 3.36364H55.0534Z" fill="white"/>
</svg>
