<svg width="200" height="113" viewBox="0 0 200 113" fill="none" xmlns="http://www.w3.org/2000/svg">
<path d="M65.953 36.9623C64.2504 36.9623 62.9984 36.5617 62.1971 35.7605C61.446 34.9592 61.0704 33.9326 61.0704 32.6806V31.4036C61.0704 30.1517 61.446 29.1251 62.1971 28.3238C62.9984 27.5226 64.2504 27.122 65.953 27.122C67.6557 27.122 68.8826 27.5226 69.6338 28.3238C70.3849 29.1251 70.7605 30.1517 70.7605 31.4036V32.6806C70.7605 33.9326 70.3849 34.9592 69.6338 35.7605C68.8826 36.5617 67.6557 36.9623 65.953 36.9623ZM61.8216 43.9482H70.0094V83.0093H61.8216V43.9482ZM77.3444 83.0093L91.0909 63.2534L77.72 43.9482H87.1848L95.9736 57.5445H96.1989L105.213 43.9482H113.927L100.556 63.1783L114.152 83.0093H104.687L95.6731 68.8121H95.4477L86.0581 83.0093H77.3444ZM150.154 83.0093C148 83.0093 146.348 82.4083 145.196 81.2065C144.044 79.9545 143.343 78.377 143.093 76.4741H142.717C141.966 78.9279 140.589 80.7808 138.586 82.0328C136.583 83.2847 134.154 83.9107 131.299 83.9107C127.243 83.9107 124.113 82.859 121.91 80.7558C119.756 78.6525 118.68 75.823 118.68 72.2675C118.68 68.3614 120.082 65.4318 122.886 63.4788C125.741 61.5257 129.897 60.5492 135.356 60.5492H142.417V57.244C142.417 54.8403 141.766 52.9874 140.464 51.6853C139.162 50.3833 137.133 49.7323 134.379 49.7323C132.075 49.7323 130.198 50.2331 128.745 51.2346C127.293 52.2362 126.066 53.5132 125.065 55.0656L120.182 50.6337C121.484 48.4302 123.312 46.6274 125.665 45.2252C128.019 43.773 131.099 43.0468 134.905 43.0468C139.963 43.0468 143.844 44.2237 146.548 46.5774C149.252 48.931 150.604 52.3113 150.604 56.7182V76.3238H154.736V83.0093H150.154ZM133.628 77.6759C136.182 77.6759 138.285 77.1251 139.938 76.0234C141.59 74.8716 142.417 73.3442 142.417 71.4412V65.8074H135.506C129.847 65.8074 127.018 67.5601 127.018 71.0656V72.4177C127.018 74.1705 127.593 75.4975 128.745 76.3989C129.947 77.2503 131.575 77.6759 133.628 77.6759ZM168.527 83.9107C166.674 83.9107 165.297 83.4349 164.395 82.4835C163.494 81.4819 163.043 80.255 163.043 78.8027V77.6759C163.043 76.2237 163.494 75.0218 164.395 74.0703C165.297 73.0687 166.674 72.568 168.527 72.568C170.38 72.568 171.757 73.0687 172.658 74.0703C173.56 75.0218 174.011 76.2237 174.011 77.6759V78.8027C174.011 80.255 173.56 81.4819 172.658 82.4835C171.757 83.4349 170.38 83.9107 168.527 83.9107Z" fill="#2C2C2C"/>
<path d="M34.7418 50.6337H28.8075V43.9482H34.7418V37.4882C34.7418 34.3332 35.5681 31.8794 37.2207 30.1266C38.8733 28.3238 41.3521 27.4224 44.6573 27.4224H51.1174V34.1079H42.9296V43.9482H51.1174V50.6337H42.9296V83.0093H34.7418V50.6337Z" fill="#2C2C2C"/>
</svg>
